<?xml version="1.0" encoding="UTF-8" standalone="no" ?>
<!DOCTYPE svg PUBLIC "-//W3C//DTD SVG 1.1//EN" "http://www.w3.org/Graphics/SVG/1.1/DTD/svg11.dtd">
<svg xmlns="http://www.w3.org/2000/svg" xmlns:xlink="http://www.w3.org/1999/xlink" version="1.1" width="145.75" height="157.82767" viewBox="307.7782663316583 158.52335092964825 145.75 157.82767" xml:space="preserve">
<desc>Created with Fabric.js 5.3.0</desc>
<defs>
</defs>
<g transform="matrix(1 0 0 1 380.6532663317 237.4371859296)" id="_0dWcazjuBTd-Ot2_j3yj"  >
<g style=""   >
		<g transform="matrix(1.25 0 0 1.25 39.2062505 -76.970086)" id="_sOKeO0gGtfCzoovbui4Y"  >
<path style="stroke: none; stroke-width: 1; stroke-dasharray: none; stroke-linecap: butt; stroke-dashoffset: 0; stroke-linejoin: miter; stroke-miterlimit: 4; fill: rgb(16,16,16); fill-rule: nonzero; opacity: 0.85;"  transform=" translate(-515.005, -27.655)" d="M 512.87 26.15 C 514.27 26.13 515.68 26.11 517.09 26.099999999999998 C 517.11 26.88 517.14 28.43 517.1600000000001 29.209999999999997 C 515.72 29.209999999999997 514.2800000000001 29.199999999999996 512.8500000000001 29.199999999999996 C 512.8500000000001 28.439999999999994 512.8700000000001 26.919999999999995 512.8700000000001 26.149999999999995 z" stroke-linecap="round" />
</g>
		<g transform="matrix(1 0 0 1 -66.6618140895 -67.6991859244)" id="rFTyhuIGdZlcf4MGFg53O"  >
<path style="stroke: none; stroke-width: 1; stroke-dasharray: none; stroke-linecap: butt; stroke-dashoffset: 0; stroke-linejoin: miter; stroke-miterlimit: 4; fill: rgb(19,19,19); fill-rule: nonzero; opacity: 1;"  transform=" translate(-535.3816659105, -218.0118500756)" d="M 531.79348 207.6597 C 535.00598 207.6847 538.23098 207.69719999999998 541.46848 207.7097 C 541.19348 213.4597 542.31848 219.4347 540.69348 225.0347 C 538.59348 229.0597 533.36848 228.2722 529.60598 228.3472 C 529.4559800000001 227.07219999999998 529.3059800000001 225.79719999999998 529.16848 224.5222 C 531.3309800000001 224.3472 533.6809800000001 224.7722 535.66848 223.6597 C 536.9559800000001 219.67219999999998 536.38098 215.4097 536.0559800000001 211.3097 C 534.9559800000001 211.3347 532.7684800000001 211.3597 531.66848 211.3722 C 531.7059800000001 210.44719999999998 531.75598 208.5847 531.79348 207.6597 z" stroke-linecap="round" />
</g>
		<g transform="matrix(1 0 0 1 -0.4703938001 -67.8050011763)" id="K-qvFZjrBI_5xmKqzoty9"  >
<path style="stroke: none; stroke-width: 1; stroke-dasharray: none; stroke-linecap: butt; stroke-dashoffset: 0; stroke-linejoin: miter; stroke-miterlimit: 4; fill: rgb(19,19,19); fill-rule: nonzero; opacity: 1;"  transform=" translate(-601.5730861999, -217.9060348237)" d="M 596.15598 209.2347 C 599.94348 206.3097 604.91848 207.5097 609.13098 208.6472 C 609.11848 209.7597 609.10598 211.9847 609.10598 213.0972 C 605.84348 211.7847 599.6434800000001 208.92219999999998 598.81848 214.32219999999998 C 601.90598 215.25969999999998 605.16848 215.8097 607.96848 217.48469999999998 C 610.94348 219.9097 610.10598 225.42219999999998 606.68098 227.08469999999997 C 602.78098 229.39719999999997 598.15598 228.13469999999998 594.0434799999999 227.29719999999998 C 593.80598 225.58469999999997 593.5684799999999 223.88469999999998 593.3559799999999 222.17219999999998 C 596.8184799999999 223.69719999999998 603.83098 227.30969999999996 604.86848 221.4722 C 601.39348 220.1597 597.06848 219.9722 594.5434799999999 216.9722 C 593.43098 214.42219999999998 593.61848 210.8722 596.1559799999999 209.23469999999998 z" stroke-linecap="round" />
</g>
		<g transform="matrix(1 0 0 1 66.80625 -67.3278145431)" id="tVwH6VsLJyvFN77-DfJDn"  >
<path style="stroke: none; stroke-width: 1; stroke-dasharray: none; stroke-linecap: butt; stroke-dashoffset: 0; stroke-linejoin: miter; stroke-miterlimit: 4; fill: rgb(19,19,19); fill-rule: nonzero; opacity: 1;"  transform=" translate(-668.84973, -218.3832214569)" d="M 665.26848 208.3722 C 666.7309799999999 208.3722 668.20598 208.3722 669.6934799999999 208.3722 C 669.7309799999999 209.7847 669.7809799999999 211.19719999999998 669.8434799999999 212.6097 C 670.9684799999999 212.6222 673.2309799999999 212.6472 674.3684799999999 212.65970000000002 C 674.3934799999998 213.52220000000003 674.4309799999999 215.2347 674.4559799999998 216.08470000000003 C 673.3059799999999 216.07220000000004 671.0059799999998 216.04720000000003 669.8559799999998 216.02220000000003 C 669.9184799999998 218.88470000000004 669.1809799999999 222.00970000000004 670.6184799999999 224.64720000000003 C 671.6934799999999 224.75970000000004 673.8434799999999 224.97220000000002 674.9184799999998 225.08470000000003 C 674.8059799999999 230.34720000000002 668.8059799999999 227.95970000000003 665.6309799999998 227.13470000000004 C 665.3434799999998 223.92220000000003 665.2059799999998 220.70970000000003 665.2059799999998 217.48470000000003 C 664.3934799999998 216.34720000000004 663.5809799999998 215.19720000000004 662.7809799999999 214.05970000000002 C 663.3934799999998 213.49720000000002 664.6184799999999 212.37220000000002 665.2309799999999 211.80970000000002 C 665.24348 210.9472 665.2559799999999 209.22220000000002 665.26848 208.37220000000002 z" stroke-linecap="round" />
</g>
		<g transform="matrix(1 0 0 1 -50.9721121491 -65.3303401894)" id="7S7lH4VrMtYYHn8ccJbl9"  >
<path style="stroke: none; stroke-width: 1; stroke-dasharray: none; stroke-linecap: butt; stroke-dashoffset: 0; stroke-linejoin: miter; stroke-miterlimit: 4; fill: rgb(19,19,19); fill-rule: nonzero; opacity: 1;"  transform=" translate(-551.0713678509, -220.3806958106)" d="M 545.36848 212.7722 C 549.44348 212.5597 555.14348 211.0472 557.70598 215.2597 C 558.61848 219.43470000000002 558.0434799999999 223.7722 558.18098 228.0222 C 556.3559799999999 227.8597 554.53098 227.6847 552.71848 227.5222 C 550.64348 227.6972 548.20598 229.2347 546.29348 227.8597 C 543.1184800000001 226.3347 543.06848 220.7097 546.40598 219.34720000000002 C 548.83098 218.34720000000002 551.48098 218.1722 554.01848 217.5722 C 551.6059799999999 215.0722 548.18098 216.0222 545.14348 216.34720000000002 C 545.20598 215.4472 545.3184799999999 213.65970000000002 545.36848 212.77220000000003 M 549.34348 221.35970000000003 C 549.20598 222.57220000000004 549.08098 223.78470000000004 548.96848 225.00970000000004 C 550.35598 224.93470000000005 551.74348 224.87220000000005 553.14348 224.79720000000003 C 553.24348 223.48470000000003 553.3559799999999 222.17220000000003 553.46848 220.85970000000003 C 552.08098 221.02220000000003 550.70598 221.19720000000004 549.34348 221.35970000000003 z" stroke-linecap="round" />
</g>
		<g transform="matrix(1 0 0 1 -34.0625 -65.288836)" id="E8Gj9kGWPCzY_h8fyXA_x"  >
<path style="stroke: none; stroke-width: 1; stroke-dasharray: none; stroke-linecap: butt; stroke-dashoffset: 0; stroke-linejoin: miter; stroke-miterlimit: 4; fill: rgb(19,19,19); fill-rule: nonzero; opacity: 1;"  transform=" translate(-567.98098, -220.4222)" d="M 560.04348 212.3347 C 561.2434800000001 212.5722 563.65598 213.0472 564.85598 213.2847 C 566.1184800000001 216.1847 566.98098 219.23469999999998 568.2059800000001 222.1597 C 569.23098 219.0347 570.1809800000001 215.8722 571.10598 212.7097 C 572.3059800000001 212.6847 574.71848 212.6472 575.91848 212.6222 C 574.21848 217.9847 572.31848 223.2847 570.19348 228.50969999999998 C 568.54348 228.29719999999998 566.91848 227.94719999999998 565.34348 227.48469999999998 C 563.06848 222.63469999999998 561.56848 217.45969999999997 560.04348 212.33469999999997 z" stroke-linecap="round" />
</g>
		<g transform="matrix(1 0 0 1 -18.2113869248 -65.3936651443)" id="9WK_8UTB6B4TKjoFsRjLV"  >
<path style="stroke: none; stroke-width: 1; stroke-dasharray: none; stroke-linecap: butt; stroke-dashoffset: 0; stroke-linejoin: miter; stroke-miterlimit: 4; fill: rgb(19,19,19); fill-rule: nonzero; opacity: 1;"  transform=" translate(-583.8320930752, -220.3173708557)" d="M 577.46848 216.3222 C 577.81848 215.1347 578.21848 213.9472 578.65598 212.78470000000002 C 582.53098 212.22220000000002 587.78098 211.39720000000003 590.44348 215.02220000000003 C 591.35598 219.34720000000002 590.79348 223.82220000000004 590.88098 228.20970000000003 C 589.04348 227.95970000000003 587.21848 227.70970000000003 585.3934800000001 227.45970000000003 C 582.1184800000001 229.19720000000004 576.6559800000001 228.57220000000004 576.73098 223.95970000000003 C 576.10598 218.48470000000003 582.94348 218.40970000000002 586.65598 217.68470000000002 C 584.41848 214.68470000000002 580.54348 216.27220000000003 577.46848 216.3222 M 581.99348 221.47220000000002 C 581.8559799999999 222.59720000000002 581.7309799999999 223.7347 581.6059799999999 224.8597 C 582.9809799999999 224.8972 584.3559799999999 224.9347 585.74348 224.9597 C 585.86848 223.5722 585.99348 222.1972 586.11848 220.8097 C 584.74348 221.0222 583.36848 221.2472 581.99348 221.4722 z" stroke-linecap="round" />
</g>
		<g transform="matrix(1 0 0 1 15.8670243751 -65.3225823539)" id="TKqW403ds0UTsJMbwNIuX"  >
<path style="stroke: none; stroke-width: 1; stroke-dasharray: none; stroke-linecap: butt; stroke-dashoffset: 0; stroke-linejoin: miter; stroke-miterlimit: 4; fill: rgb(19,19,19); fill-rule: nonzero; opacity: 1;"  transform=" translate(-617.9105043751, -220.3884536461)" d="M 610.90598 220.4097 C 610.51848 213.60969999999998 619.16848 210.04719999999998 624.34348 213.67219999999998 C 624.46848 214.63469999999998 624.70598 216.57219999999998 624.81848 217.5347 C 622.44348 216.7847 620.00598 215.0847 617.4559800000001 216.23469999999998 C 614.75598 218.80969999999996 615.31848 225.3472 619.8934800000001 224.95969999999997 C 621.1559800000001 224.55969999999996 623.66848 223.75969999999998 624.9309800000001 223.35969999999998 C 624.7059800000001 224.43469999999996 624.2684800000001 226.58469999999997 624.0559800000001 227.64719999999997 C 618.6434800000001 230.19719999999998 610.48098 227.18469999999996 610.9059800000001 220.40969999999996 z" stroke-linecap="round" />
</g>
		<g transform="matrix(1 0 0 1 29.9263933405 -65.495086)" id="brjC13kWDdEwIPnsla-K8"  >
<path style="stroke: none; stroke-width: 1; stroke-dasharray: none; stroke-linecap: butt; stroke-dashoffset: 0; stroke-linejoin: miter; stroke-miterlimit: 4; fill: rgb(19,19,19); fill-rule: nonzero; opacity: 1;"  transform=" translate(-631.9698733405, -220.21595)" d="M 626.89348 212.2847 C 628.76848 212.7847 630.68098 213.2847 632.5684799999999 213.82219999999998 C 633.9809799999999 213.3097 635.4059799999999 212.8097 636.8434799999999 212.29719999999998 C 636.9059799999999 213.49719999999996 637.0559799999999 215.89719999999997 637.1309799999999 217.0972 C 635.33098 217.1847 633.5309799999999 217.2722 631.7559799999999 217.35969999999998 C 631.6309799999999 220.94719999999998 631.5934799999999 224.52219999999997 631.5684799999999 228.10969999999998 C 630.39348 228.12219999999996 628.0309799999999 228.13469999999998 626.8559799999999 228.14719999999997 C 626.7934799999999 222.85969999999998 626.7809799999999 217.57219999999998 626.89348 212.28469999999996 z" stroke-linecap="round" />
</g>
		<g transform="matrix(1 0 0 1 52.6926415529 -62.657586)" id="ip6iS-VXXAFzhjr-QRGTs"  >
<path style="stroke: none; stroke-width: 1; stroke-dasharray: none; stroke-linecap: butt; stroke-dashoffset: 0; stroke-linejoin: miter; stroke-miterlimit: 4; fill: rgb(19,19,19); fill-rule: nonzero; opacity: 1;"  transform=" translate(-654.7361215529, -223.05345)" d="M 647.21848 212.6222 C 650.66848 213.3972 654.14348 213.1597 657.58098 212.4722 C 662.96848 213.5847 663.09348 221.2222 661.0434799999999 225.2222 C 659.3434799999999 228.67219999999998 655.18098 228.3472 651.9684799999999 228.17219999999998 C 651.9934799999999 229.99719999999996 652.0184799999998 231.80969999999996 652.0434799999999 233.63469999999998 C 650.8434799999999 233.6222 648.4184799999999 233.5972 647.20598 233.57219999999998 C 647.20598 226.5972 647.1934799999999 219.60969999999998 647.21848 212.6222 M 652.09348 216.2972 C 652.04348 219.2097 652.01848 222.1347 652.04348 225.0472 C 653.59348 224.6222 655.59348 224.9222 656.7684800000001 223.5847 C 657.6434800000001 221.2097 656.9559800000001 218.6472 656.7809800000001 216.1972 C 655.2184800000001 216.22220000000002 653.6559800000001 216.2597 652.0934800000001 216.2972 z" stroke-linecap="round" />
</g>
		<g transform="matrix(1.25 0 0 1.25 39.201563 -65.313836)" id="iTPsrt0lzLxL2NPCS_6A6"  >
<path style="stroke: none; stroke-width: 1; stroke-dasharray: none; stroke-linecap: butt; stroke-dashoffset: 0; stroke-linejoin: miter; stroke-miterlimit: 4; fill: rgb(19,19,19); fill-rule: nonzero; opacity: 1;"  transform=" translate(-515.00125, -36.98)" d="M 513.23 30.79 C 514.12 30.79 515.9 30.79 516.78 30.79 C 516.8399999999999 34.92 516.8399999999999 39.04 516.78 43.17 C 515.89 43.17 514.12 43.17 513.23 43.17 C 513.16 39.050000000000004 513.16 34.92 513.23 30.79 z" stroke-linecap="round" />
</g>
		<g transform="matrix(1.25 0 0 1.25 -0.0187495 15.5495381802)" id="5XwUL5xIgmkF3DkrZQVkE"  >
<path style="stroke: none; stroke-width: 1; stroke-dasharray: none; stroke-linecap: butt; stroke-dashoffset: 0; stroke-linejoin: miter; stroke-miterlimit: 4; fill: rgb(214,186,50); fill-rule: nonzero; opacity: 1;"  transform=" translate(-483.625, -101.6706993442)" d="M 439.03 51.2 C 449 50.78 458.98999999999995 51.32 468.96999999999997 51.150000000000006 C 479.97999999999996 50.800000000000004 490.97999999999996 51.09 502 51.13 C 510.74 51.150000000000006 519.48 51.09 528.22 51.160000000000004 C 525.47 81.49000000000001 522.7 111.82 520.15 142.17000000000002 C 508.44 145.50000000000003 496.71999999999997 148.78000000000003 485.01 152.09 C 483.51 152.71 481.96999999999997 152.13 480.53 151.74 C 469.4 148.54000000000002 458.27 145.37 447.12 142.29000000000002 C 444.22 111.95000000000002 441.49 81.58000000000001 439.03000000000003 51.20000000000002 M 483.81000000000006 59.110000000000014 C 483.40000000000003 74.07000000000002 483.75000000000006 89.03000000000002 483.63000000000005 103.99000000000001 C 483.74000000000007 117.67000000000002 483.43000000000006 131.36 483.7900000000001 145.04000000000002 C 493.63000000000005 142.72000000000003 503.3400000000001 139.87000000000003 513.0500000000001 137.06000000000003 C 515.4900000000001 111.09000000000003 517.8700000000001 85.12000000000003 519.9100000000001 59.12000000000003 C 507.8800000000001 59.000000000000036 495.8400000000001 59.140000000000036 483.81000000000006 59.110000000000035 M 471.2900000000001 117.53000000000003 C 465.5100000000001 115.95000000000003 459.80000000000007 114.13000000000002 453.94000000000005 112.88000000000002 C 453.77000000000004 116.36000000000003 453.83000000000004 119.84000000000002 454.2300000000001 123.30000000000003 C 462.81000000000006 125.39000000000003 471.2100000000001 128.14000000000001 479.80000000000007 130.19000000000003 C 479.86000000000007 110.38000000000002 479.7700000000001 90.56000000000003 479.8400000000001 70.75000000000003 C 477.0400000000001 70.68000000000004 474.24000000000007 70.64000000000003 471.4400000000001 70.58000000000003 C 471.1200000000001 86.22000000000003 471.42000000000013 101.88000000000002 471.29000000000013 117.53000000000003 z" stroke-linecap="round" />
</g>
		<g transform="matrix(1.25 0 0 1.25 22.6462979899 16.0302563627)" id="wdnI7uP5tURW-q9yulT0r"  >
<path style="stroke: none; stroke-width: 1; stroke-dasharray: none; stroke-linecap: butt; stroke-dashoffset: 0; stroke-linejoin: miter; stroke-miterlimit: 4; fill: rgb(255,218,62); fill-rule: nonzero; opacity: 1;"  transform=" translate(-501.7570379919, -102.0552738902)" d="M 483.81 59.11 C 495.84 59.14 507.88 59 519.91 59.12 C 517.87 85.12 515.49 111.09 513.05 137.06 C 503.34 139.87 493.62999999999994 142.72 483.78999999999996 145.04 C 483.42999999999995 131.35999999999999 483.73999999999995 117.66999999999999 483.62999999999994 103.99 C 483.74999999999994 89.03 483.3999999999999 74.07 483.80999999999995 59.10999999999999 M 487.17999999999995 70.74 C 487.21999999999997 83.61999999999999 487.22999999999996 96.50999999999999 487.17999999999995 109.38999999999999 C 493.05999999999995 108.43999999999998 498.91999999999996 107.34999999999998 504.78 106.27999999999999 C 504.69 109.27999999999999 504.57 112.27999999999999 504.44 115.27999999999999 C 498.73 116.79999999999998 493.03 118.36999999999999 487.29 119.77999999999999 C 487.20000000000005 123.23999999999998 487.19 126.69999999999999 487.22 130.17 C 494.45000000000005 128.54999999999998 501.57000000000005 126.50999999999999 508.75 124.69999999999999 C 509.65 124.27999999999999 511.38 124.32999999999998 511.3 122.91999999999999 C 512.17 113.65999999999998 512.71 104.35999999999999 513.55 95.07999999999998 C 507.59999999999997 95.56999999999998 501.71 96.56999999999998 495.75999999999993 96.97999999999999 C 495.7099999999999 91.71999999999998 495.69999999999993 86.46 495.7799999999999 81.19999999999999 C 502.0399999999999 81.19999999999999 508.2899999999999 81.19999999999999 514.55 81.21 C 514.9499999999999 77.69999999999999 515.3 74.17999999999999 515.5699999999999 70.66 C 506.10999999999996 70.7 496.63999999999993 70.57 487.17999999999995 70.74 z" stroke-linecap="round" />
</g>
		<g transform="matrix(1 0 0 1 -20.9933217196 13.942414)" id="MU1uAADNZ3SQMiDM3lFO1"  >
<path style="stroke: none; stroke-width: 1; stroke-dasharray: none; stroke-linecap: butt; stroke-dashoffset: 0; stroke-linejoin: miter; stroke-miterlimit: 4; fill: rgb(235,235,235); fill-rule: nonzero; opacity: 1;"  transform=" translate(-581.0501582804, -299.65345)" d="M 586.60598 321.0847 C 586.7684800000001 301.5222 586.3934800000001 281.9472 586.79348 262.3972 C 590.29348 262.4722 593.79348 262.5222 597.29348 262.6097 C 597.2059800000001 287.37219999999996 597.31848 312.1472 597.2434800000001 336.9097 C 586.5059800000001 334.3472 576.0059800000001 330.9097 565.2809800000001 328.2972 C 564.7809800000001 323.9722 564.7059800000001 319.62219999999996 564.9184800000002 315.2722 C 572.2434800000002 316.8347 579.3809800000001 319.1097 586.6059800000002 321.0847 z" stroke-linecap="round" />
</g>
</g>
</g>
</svg>